Coordinates
version=1
nRows=24
nColumns=22
inDegrees=yes

Units are S.I. units (second, meters, Newtons, ...)
If the header above contains a line with 'inDegrees', this indicates whether rotational values are in degrees (yes) or radians (no).

endheader
time	pelvis_tilt	pelvis_list	pelvis_rotation	pelvis_tx	pelvis_ty	pelvis_tz	hip_flexion_r	hip_adduction_r	hip_rotation_r	knee_angle_r	ankle_angle_r	subtalar_angle_r	hip_flexion_l	hip_adduction_l	hip_rotation_l	knee_angle_l	ankle_angle_l	subtalar_angle_l	lumbar_extension	lumbar_bending	lumbar_rotation
      0.01000000	    -21.98254361	     11.79889239	    -36.74916607	     -1.27781580	      0.86034891	     -0.73306450	      9.61458953	      7.50870571	      4.03877242	    -52.06686995	      5.77664200	      6.09377072	     68.90889213	    -10.31742882	    -10.71820328	    -67.09070921	     19.42806947	     10.65351273	     -9.25774375	     -3.01340287	     19.99234312
      0.02000000	    -21.64574761	     11.61204842	    -36.18450911	     -1.25578074	      0.85976260	     -0.72096113	     11.43168812	      7.10203201	      3.01804595	    -56.77540210	      6.93397886	      5.93286349	     66.77202739	     -9.44569653	    -11.11442150	    -66.40729487	     20.72921510	      8.44534629	     -9.63845367	     -3.11536726	     18.85024998
      0.03000000	    -21.20455470	     11.54913643	    -35.52132384	     -1.23013057	      0.85866030	     -0.70712112	     13.74250498	      6.32020639	      1.80607061	    -62.11430020	      8.10319890	      5.14644481	     64.23209692	     -8.24509259	    -11.45819170	    -65.69568480	     22.69355964	      5.83672491	    -10.06256875	     -3.35769618	     17.38253339
      0.04000000	    -20.66140308	     11.62382023	    -34.83083052	     -1.20198662	      0.85704385	     -0.69206479	     16.48703159	      5.17142203	      0.61308840	    -67.76515721	      9.24746569	      3.84009243	     61.36828539	     -6.77541494	    -11.69217802	    -64.98105468	     25.28765718	      3.24860805	    -10.53539715	     -3.73985532	     15.64137694
      0.05000000	    -20.09028952	     11.80062920	    -34.13619390	     -1.17241766	      0.85491656	     -0.67628980	     19.64940768	      3.77581034	     -0.41812746	    -73.42865486	     10.45001011	      2.11879044	     58.33416018	     -5.12527698	    -11.70229319	    -64.27497578	     28.27129038	      0.92136178	    -11.02494220	     -4.16666797	     13.66273598
      0.06000000	    -19.58437444	     12.01892800	    -33.42757079	     -1.14228371	      0.85233953	     -0.66019646	     23.24210579	      2.30353903	     -1.21931883	    -78.84941247	     11.74129835	      0.06928929	     55.29027213	     -3.41093464	    -11.40862502	    -63.59803638	     31.35646980	     -0.97500405	    -11.48615958	     -4.50476161	     11.48411938
      0.07000000	    -19.20593626	     12.23714728	    -32.70948345	     -1.11218936	      0.84946923	     -0.64398299	     27.27575549	      0.88907874	     -1.76885531	    -83.81743530	     13.11900062	     -2.23025743	     52.33725225	     -1.75884682	    -10.82751060	    -62.95483977	     34.28229947	     -2.38563040	    -11.87661200	     -4.67541313	      9.15152138
      0.08000000	    -18.98136078	     12.40791169	    -31.96777409	     -1.08241825	      0.84655255	     -0.62773082	     31.70998525	     -0.38000172	     -2.12234995	    -88.13974931	     14.51344807	     -4.72137086	     49.49754747	     -0.26544963	    -10.00588061	    -62.32749223	     36.85832268	     -3.34318213	    -12.17981217	     -4.61692277	      6.69678747
      0.09000000	    -18.88913622	     12.51359947	    -31.21969259	     -1.05298548	      0.84387873	     -0.61136368	     36.45489495	     -1.48289906	     -2.33291261	    -91.65136428	     15.86540693	     -7.26013058	     46.70949640	      1.00403763	     -9.04250309	    -61.64633189	     38.98556902	     -3.88391845	    -12.38907429	     -4.33513454	      4.17299281
      0.10000000	    -18.88981737	     12.56182683	    -30.49535414	     -1.02371176	      0.84169907	     -0.59475865	     41.39680029	     -2.44720283	     -2.45275561	    -94.22530256	     17.05291407	     -9.59423048	     43.87564136	      2.02925231	     -8.03314435	    -60.80058615	     40.63331588	     -4.04314977	    -12.49086096	     -3.87083930	      1.64057889
      0.11000000	    -18.89864721	     12.46960312	    -29.82956861	     -0.99427082	      0.84034840	     -0.57771270	     46.26538757	     -3.26092705	     -2.59727559	    -95.73319035	     18.14903525	    -11.64217008	     40.80894793	      2.75815987	     -7.00473906	    -59.69024795	     41.78291433	     -3.88269737	    -12.57456783	     -3.20302045	     -0.83849910
      0.12000000	    -18.87546427	     12.28384991	    -29.29968839	     -0.96441430	      0.83992723	     -0.56007476	     50.93887427	     -3.96171656	     -2.78238398	    -96.14644736	     19.04300798	    -13.10063642	     37.43513617	      3.21070756	     -6.04521234	    -58.20359480	     42.42077300	     -3.39823606	    -12.61303930	     -2.41864203	     -3.16147905
      0.13000000	    -18.78995082	     12.00156797	    -28.96602410	     -0.93397470	      0.84049746	     -0.54171731	     55.25382436	     -4.53413909	     -3.07345599	    -95.46268323	     19.73302075	    -13.85969272	     33.70680861	      3.39265821	     -5.18652983	    -56.29686858	     42.48996478	     -2.59391420	    -12.62483462	     -1.55384116	     -5.23985874
      0.14000000	    -18.64336629	     11.65623869	    -28.87887196	     -0.90290705	      0.84198177	     -0.52257000	     59.11134119	     -4.95998837	     -3.52139683	    -93.73437674	     20.17712404	    -13.84922107	     29.65818559	      3.35069282	     -4.45844120	    -53.97480368	     41.92847781	     -1.51103357	    -12.59618487	     -0.66603456	     -6.99359987
      0.15000000	    -18.48152545	     11.26290546	    -29.03688039	     -0.87125932	      0.84422553	     -0.50266155	     62.44432368	     -5.21558083	     -4.21842722	    -91.03894001	     20.28659741	    -13.11528966	     25.40645849	      3.13551618	     -3.82304434	    -51.33444783	     40.59008025	     -0.09385624	    -12.50039417	      0.24026806	     -8.37515064
      0.16000000	    -18.30769004	     10.85059973	    -29.43449310	     -0.83912016	      0.84705537	     -0.48198601	     65.17887592	     -5.29130880	     -5.20382664	    -87.50799480	     20.04432897	    -11.65766559	     21.05317266	      2.83451740	     -3.24079045	    -48.51053216	     38.43933741	      1.63419806	    -12.35048909	      1.11302322	     -9.38285085
      0.17000000	    -18.14878498	     10.44707178	    -30.00306654	     -0.80657458	      0.85025116	     -0.46070230	     67.29221914	     -5.21191762	     -6.49984372	    -83.31528051	     19.38672668	     -9.45078779	     16.76337395	      2.55518000	     -2.56512611	    -45.71552944	     35.44010811	      3.66793643	    -12.14360661	      1.94346810	    -10.03160680
      0.18000000	    -17.96903023	     10.03556981	    -30.72613734	     -0.77373696	      0.85367507	     -0.43876409	     68.71354117	     -4.93334681	     -8.07118117	    -78.67103564	     18.41562817	     -6.61986132	     12.63554896	      2.32871391	     -1.74918950	    -43.20605398	     31.63128504	      5.88063617	    -11.95368036	      2.70643922	    -10.34999436
      0.19000000	    -17.76571540	      9.64601988	    -31.54507931	     -0.74071765	      0.85708203	     -0.41630230	     69.49779422	     -4.47011214	     -9.82037237	    -73.84553358	     17.15088393	     -3.24453623	      8.85147863	      2.22480257	     -0.71888513	    -41.27702318	     27.20847074	      8.23295002	    -11.79020391	      3.37350675	    -10.38865728
      0.20000000	    -17.51867956	      9.31884013	    -32.42333053	     -0.70763097	      0.86023229	     -0.39342053	     69.73544180	     -3.84821880	    -11.60695012	    -69.13675342	     15.73121049	      0.47909034	      5.58525757	      2.30606504	      0.51364719	    -40.21733134	     22.47845746	     10.66016482	    -11.65911139	      3.89021482	    -10.20251848
      0.21000000	    -17.19391557	      9.08800587	    -33.35215767	     -0.67460268	      0.86292970	     -0.37026408	     69.53123515	     -3.10068691	    -13.27297571	    -64.83968511	     14.30037456	      4.16959420	      2.97780716	      2.63074384	      1.84252701	    -40.26643256	     17.85737246	     13.05251197	    -11.58547283	      4.20801058	     -9.82978375
      0.22000000	    -16.77353364	      8.97791903	    -34.35750842	     -0.64175528	      0.86499417	     -0.34695751	     68.99652809	     -2.25882014	    -14.68873402	    -61.21409734	     13.02999620	      7.36744303	      1.14261958	      3.21621545	      3.01640810	    -41.57309648	     13.74968762	     15.30536889	    -11.57444245	      4.29871186	     -9.26378369
      0.23000000	    -16.24253878	      8.95187220	    -35.47314695	     -0.60923284	      0.86636600	     -0.32357434	     68.17116678	     -1.32691276	    -15.77352870	    -58.42933811	     12.12679347	      9.55196193	      0.11664414	      3.98896141	      3.71849770	    -44.17736583	     10.44867441	     17.26230334	    -11.67062506	      4.18676361	     -8.48404776
      0.24000000	    -15.69184404	      9.02048232	    -36.65731450	     -0.57724988	      0.86685972	     -0.30029628	     67.19566078	     -0.36007963	    -16.50059362	    -56.57631167	     11.64074765	     10.47281071	      0.05003016	      4.79789898	      3.69489013	    -48.06997378	      8.11830501	     18.82481016	    -11.78613915	      3.92124818	     -7.49245607
